<?xml version="1.0" encoding="UTF-8" standalone="no"?>
<!DOCTYPE svg PUBLIC "-//W3C//DTD SVG 1.1//EN" "http://www.w3.org/Graphics/SVG/1.1/DTD/svg11.dtd">
<svg width="100%" height="100%" viewBox="0 0 1200 800" version="1.1" xmlns="http://www.w3.org/2000/svg" xmlns:xlink="http://www.w3.org/1999/xlink" xml:space="preserve" xmlns:serif="http://www.serif.com/" style="fill-rule:evenodd;clip-rule:evenodd;stroke-linejoin:round;stroke-miterlimit:2;">
    <g id="hands">
        <path d="M944.994,497.238L936.982,488.595C977.72,450.819 1010.65,423.35 1058.38,394.728C1077.14,383.509 1097.23,373.593 1118.1,365.233L1118.77,364.991C1134.35,358.708 1144.37,343.451 1144.7,325.249C1145.31,291.81 1137.23,235.647 1095.27,157.909C1051.54,76.647 1007.5,43.149 978.257,29.358C965.467,23.197 951.515,23.081 939.79,29.012L939.554,29.248L938.219,29.871C934.979,31.125 931.424,32.556 927.579,34.112C898.474,45.858 849.792,65.497 795.645,61.774C769.267,59.879 743.849,64.996 722.243,76.579L627.289,127.212L555.082,179.434L548.173,169.879L621.306,117.054L716.681,66.176C740.248,53.56 767.839,47.983 796.476,50.013C847.84,53.602 893.186,35.28 923.167,23.182C926.783,21.719 930.145,20.365 933.236,19.164L933.498,18.995C948.708,10.89 966.877,10.786 983.33,18.711C1014.13,33.241 1060.39,68.233 1105.65,152.32C1148.82,232.297 1157.12,290.621 1156.49,325.46C1156.08,348.127 1142.91,367.969 1122.96,376.007L1122.27,376.255C1102.19,384.305 1082.66,393.95 1064.43,404.841C1017.59,432.936 985.169,459.993 944.994,497.238ZM891.165,578.554C890.632,578.554 890.095,578.548 889.559,578.536C874.45,578.184 859.485,572.664 847.42,562.995L854.788,553.797C864.85,561.856 877.294,566.462 889.836,566.748C905.865,567.287 920.682,560.521 930.261,548.605C941.978,533.994 944.046,513.598 935.647,495.384C931.895,487.116 926.062,479.668 918.777,473.808L726.192,319.666C707.501,305.082 698.217,298.635 690.032,292.946C679.344,285.521 670.11,279.11 644.313,257.757L651.83,248.672C677.242,269.709 686.285,275.995 696.756,283.265C705.072,289.038 714.493,295.589 733.5,310.423L926.157,464.616C934.881,471.626 941.864,480.571 946.365,490.484C956.633,512.752 953.986,537.863 939.453,555.982C927.877,570.384 910.348,578.554 891.165,578.554ZM184.927,432.51C177.023,425.553 168.597,418.671 158.836,410.713C151.185,404.472 142.636,397.494 132.678,389.134C114.622,373.9 94.605,359.358 73.16,345.901L72.951,345.815C52.201,332.778 40.97,309.812 43.959,287.077C48.386,251.838 66.177,195.029 125.743,124.691C188.093,51.125 244.118,27.114 280.144,19.924C298.99,15.99 318.554,20.431 333.716,32.103L334.077,32.383C346.661,40.162 357.293,50.445 368.532,61.324C389.614,81.723 411.413,102.819 450.876,113.597C452.804,114.187 494.803,127.299 554.81,169.727L548.006,179.348C489.7,138.124 448.008,125.048 447.594,124.92C405.393,113.391 381.456,90.233 360.336,69.798C349.382,59.196 339.034,49.178 327.278,42.043L326.071,41.068C314.098,31.867 298.069,28.246 282.499,31.471C248.264,38.308 194.888,61.336 134.735,132.312C77.044,200.438 59.885,254.89 55.649,288.576C53.22,307.073 62.114,325.088 78.85,335.615L79.052,335.702C101.332,349.665 121.805,364.538 140.267,380.112C150.171,388.43 158.678,395.369 166.287,401.578C176.135,409.613 184.644,416.555 192.713,423.657L184.927,432.51ZM618.302,787.159C617.778,787.159 617.256,787.153 616.719,787.141C596.049,786.655 570.673,775.911 548.84,758.4L516.955,732.886L524.319,723.677L556.214,749.196C576.101,765.154 598.824,774.93 617,775.353C628.057,775.636 637.384,772.492 644.987,766.069C658.334,756.081 665.651,743.303 665.863,729.876C666.077,716.946 659.618,704.279 648.152,695.12L655.508,685.91L682.274,707.313C692.393,715.42 704.86,720.043 717.384,720.332C733.363,720.699 748.18,714.085 757.744,702.136C765.792,692.104 769.407,679.245 767.932,665.94C766.298,651.145 758.406,637.1 746.29,627.408L746.284,627.402L753.64,618.192L784.849,643.118C810.682,661.076 841.948,658.957 858.862,637.795C867.366,627.148 870.895,613.548 868.796,599.498C866.662,585.364 859.059,572.393 847.387,562.983L854.788,553.809C868.758,565.073 877.875,580.676 880.459,597.748C883.037,615.083 878.641,631.917 868.072,645.154C847.506,670.864 808.7,674.065 777.803,652.558L776.924,651.854C778.247,656.015 779.168,660.298 779.651,664.638C781.469,681.081 776.957,697.015 766.942,709.51C755.067,724.344 736.88,732.684 717.107,732.12C702.58,731.781 688.145,726.633 676.277,717.587C677.248,721.668 677.722,725.846 677.651,730.067C677.374,747.223 668.378,763.288 652.319,775.288C643.085,783.103 631.571,787.159 618.302,787.159ZM431.973,664.805L431.857,664.682L440.402,656.555L431.973,664.805ZM632.129,452.7C608.657,452.7 587.436,439.556 574.339,415.074L504.928,285.026C489.268,255.683 485.197,231.457 492.49,210.96L493.113,209.219L494.603,208.146L610.091,125.15L616.973,134.729L503.029,216.614C497.739,233.496 501.775,254.082 515.324,279.479L584.735,409.521C604.487,446.438 637.13,445.91 661.076,433.121C679.233,423.362 698.81,394.862 678.262,356.354L637.407,279.891L650.853,203.052L662.468,205.079L649.723,277.924L688.655,350.798C710.449,391.631 693.579,429.037 666.647,443.508C655.055,449.702 643.336,452.7 632.129,452.7ZM264.487,367.164L206.73,415.017C196.248,423.663 189.774,435.928 188.495,449.547C187.223,463.171 191.297,476.428 199.982,486.863C208.641,497.36 220.906,503.828 234.524,505.107C248.213,506.386 261.405,502.305 271.84,493.617L329.979,445.448C341.141,436.244 347.841,422.576 348.369,407.941C348.819,395.369 344.679,383.176 336.718,373.611C322.894,356.813 299.214,350.711 278.97,358.619L264.487,367.164ZM239.439,517.124C237.448,517.124 235.439,517.035 233.424,516.844C216.658,515.274 201.562,507.295 190.906,494.383C180.218,481.54 175.187,465.212 176.758,448.447C178.334,431.681 186.307,416.585 199.219,405.929L258.1,357.248L274.171,347.844C299.619,337.624 328.408,344.956 345.803,366.091C355.6,377.867 360.705,392.886 360.145,408.37C359.501,426.367 351.242,443.198 337.487,454.542L279.369,502.684C268.058,512.102 254.058,517.124 239.439,517.124ZM442.548,530.307C431.109,530.307 419.616,534.116 410.129,541.931L351.632,590.354C330.226,608.311 327.278,640.522 345.093,662.134C363.063,683.725 395.348,686.75 417.044,668.849L475.173,620.606C486.332,611.402 493.033,597.724 493.56,583.093C494.01,570.524 489.873,558.331 481.912,548.766C471.832,536.596 457.242,530.307 442.548,530.307ZM384.502,692.3C366.407,692.3 348.443,684.584 336.017,669.651C314.087,643.047 317.714,603.417 344.089,581.299L402.63,532.847C429.297,510.847 468.932,514.621 490.982,541.237C500.791,553.025 505.897,568.041 505.339,583.522C504.693,601.513 496.433,618.35 482.678,629.7L424.566,677.928C412.853,687.594 398.642,692.3 384.502,692.3ZM391.065,425.636C379.268,425.636 367.975,429.669 358.839,437.234L279.357,503.158C257.79,521.011 254.78,553.079 272.633,574.646C281.238,585.039 293.434,591.459 306.984,592.717C320.527,593.972 333.722,589.921 344.104,581.284L423.696,515.435C434.79,506.207 441.457,492.601 441.982,478.106C442.426,465.659 438.283,453.529 430.328,443.964C421.717,433.562 409.521,427.139 395.965,425.866C394.326,425.711 392.696,425.636 391.065,425.636ZM311.842,604.732C309.869,604.732 307.884,604.642 305.893,604.455C289.205,602.899 274.165,594.985 263.551,582.16C241.552,555.591 245.266,516.081 271.834,494.082L351.317,428.158C364.136,417.55 380.356,412.57 397.071,414.132C413.756,415.696 428.79,423.622 439.398,436.435C449.207,448.223 454.306,463.177 453.758,478.526L453.758,478.532C453.114,496.377 444.9,513.131 431.219,524.507L351.632,590.354C340.357,599.727 326.411,604.732 311.842,604.732ZM495.957,632.972C486.839,632.972 477.641,635.634 469.531,641.121C468.062,642.027 466.899,642.978 465.722,643.917L437.919,666.972C428.277,674.924 422.322,686.205 421.13,698.747C419.938,711.307 423.678,723.53 431.663,733.17C448.205,753.112 477.945,755.926 497.962,739.411L525.846,716.297C536.149,707.802 542.331,695.182 542.814,681.663C543.228,670.128 539.425,658.882 532.099,649.988C522.823,638.835 509.488,632.972 495.957,632.972ZM467.987,761.953C451.031,761.953 434.206,754.704 422.59,740.683C412.594,728.624 407.902,713.331 409.393,697.638C410.88,681.952 418.343,667.833 430.402,657.887L458.285,634.77C459.925,633.458 461.49,632.23 463.141,631.217C488.106,614.323 521.759,619.092 541.18,642.477C550.355,653.616 555.114,667.678 554.593,682.089C553.985,698.977 546.25,714.756 533.356,725.378L505.482,748.495C494.511,757.541 481.209,761.953 467.987,761.953ZM847.491,563.046L730.058,471.755L737.289,462.449L854.719,553.743L847.491,563.046ZM746.358,627.455L647.449,550.581L654.68,541.267L753.589,618.141L746.358,627.455ZM648.233,695.176L564.301,629.965L571.531,620.654L655.464,685.865L648.233,695.176ZM753.533,312.349C723.006,312.349 706.073,303.947 704.526,303.139L709.969,292.686L707.248,297.914L709.948,292.674C710.765,293.086 792.476,332.703 930.345,225.078L937.596,234.369C855.938,298.117 793.239,312.349 753.533,312.349Z" style="fill-rule:nonzero;"/>
    </g>
</svg>
